<?xml version="1.0" encoding="UTF-8" standalone="no" ?>
<!DOCTYPE svg PUBLIC "-//W3C//DTD SVG 1.1//EN" "http://www.w3.org/Graphics/SVG/1.1/DTD/svg11.dtd">
<svg xmlns="http://www.w3.org/2000/svg" xmlns:xlink="http://www.w3.org/1999/xlink" version="1.1" width="1280" height="500" viewBox="0 250 1280 400" xml:space="preserve">
<desc>Created with Fabric.js 5.3.0</desc>
<defs>
</defs>
<g transform="matrix(1 0 0 1 640 512)" id="background-logo"  >
<rect style="stroke: none; stroke-width: 0; stroke-dasharray: none; stroke-linecap: butt; stroke-dashoffset: 0; stroke-linejoin: miter; stroke-miterlimit: 4; fill: rgb(255,255,255); fill-opacity: 0; fill-rule: nonzero; opacity: 1;"  paint-order="stroke"  x="-640" y="-512" rx="0" ry="0" width="1280" height="1024" />
</g>
<g transform="matrix(1.9211538461538462 0 0 1.9211538461538462 813.7612074725937 461.88135416165113)" id="text-logo"  >
<g style=""  paint-order="stroke"   >
		<g transform="matrix(1 0 0 1 -5.684342e-14 0)" id="text-logo-path-0"  >
<linearGradient id="SVGID_194653" gradientUnits="userSpaceOnUse" gradientTransform="matrix(1 0 0 1 3.0800000000000125 -58.05)"  x1="-3.166474609375001" y1="40.76247262640754" x2="436.6547004119443" y2="91.35700124999998">
<stop offset="0%" style="stop-color:rgb(242,59,38);stop-opacity: 1"/>
<stop offset="100%" style="stop-color:rgb(234,212,84);stop-opacity: 1"/>
</linearGradient>
<path style="stroke: none; stroke-width: 0; stroke-dasharray: none; stroke-linecap: butt; stroke-dashoffset: 0; stroke-linejoin: miter; stroke-miterlimit: 4; fill: url(#SVGID_194653); fill-rule: nonzero; opacity: 1;"  paint-order="stroke"  transform=" translate(-221.99, 28.65)" d="M 3.08 -7.56 L 3.08 -7.56 Q 3.08 -8.5 3.16 -9.49 Q 3.23 -10.49 3.38 -12.33 Q 3.53 -14.17 3.82 -17.18 Q 4.1 -20.19 4.47 -25.12 Q 4.85 -30.04 5.36 -37.24 Q 5.87 -44.44 6.47 -54.74 L 6.47 -54.74 Q 6.54 -56.43 6.84 -56.73 L 6.84 -56.73 Q 7.07 -56.96 8.08 -57 L 8.08 -57 L 11.09 -57 Q 13.46 -57 15 -56.45 Q 16.54 -55.91 17.46 -54.99 Q 18.39 -54.07 18.74 -52.82 Q 19.1 -51.58 19.1 -50.27 L 19.1 -50.27 Q 19.1 -49.52 18.99 -47.71 Q 18.87 -45.91 18.72 -43.31 Q 18.57 -40.72 18.29 -37.48 Q 18.01 -34.25 17.78 -30.72 L 17.78 -30.72 L 30.12 -41.96 Q 30.79 -42.56 31.38 -42.8 Q 31.96 -43.05 32.26 -43.05 L 32.26 -43.05 Q 33.12 -43.05 34.12 -41.96 Q 35.12 -40.87 36 -39.46 Q 36.88 -38.05 37.47 -36.54 Q 38.05 -35.04 38.05 -34.1 L 38.05 -34.1 Q 38.05 -31.88 34.46 -29.42 Q 30.87 -26.96 23.65 -23.87 L 23.65 -23.87 Q 26.88 -20.27 29.8 -17.26 Q 32.71 -14.25 34.91 -11.94 Q 37.11 -9.63 38.42 -8.16 Q 39.74 -6.69 39.74 -6.24 L 39.74 -6.24 Q 39.74 -5.87 39.35 -4.7 Q 38.95 -3.53 38.11 -2.31 Q 37.26 -1.09 36 -0.17 Q 34.74 0.75 32.97 0.75 L 32.97 0.75 Q 30.91 0.75 28.86 -0.62 Q 26.81 -1.99 24.8 -4.38 Q 22.78 -6.77 20.75 -10.04 Q 18.72 -13.31 16.62 -17.18 L 16.62 -17.18 Q 16.32 -13.08 16.02 -9.16 Q 15.72 -5.23 15.42 -1.54 L 15.42 -1.54 Q 15.34 -0.6 15.02 -0.3 Q 14.7 0 13.72 0 L 13.72 0 L 10.94 0 Q 8.57 0 7.01 -0.51 Q 5.45 -1.02 4.61 -1.94 Q 3.76 -2.86 3.42 -4.29 Q 3.08 -5.71 3.08 -7.56 Z M 49.47 -11.39 L 49.47 -11.39 Q 49.47 -12.41 49.59 -14.68 Q 49.7 -16.96 49.89 -19.8 Q 50.08 -22.63 50.32 -25.83 Q 50.56 -29.03 50.75 -31.88 Q 50.94 -34.74 51.13 -36.88 Q 51.32 -39.03 51.39 -39.97 L 51.39 -39.97 Q 51.54 -41.36 52.01 -41.85 Q 52.48 -42.33 53.57 -42.33 L 53.57 -42.33 L 56.02 -42.33 Q 58.38 -42.33 59.94 -41.88 Q 61.51 -41.43 62.39 -40.59 Q 63.27 -39.74 63.61 -38.54 Q 63.95 -37.33 63.95 -35.79 L 63.95 -35.79 Q 63.95 -34.18 63.69 -31.26 Q 63.42 -28.35 63.14 -25.19 Q 62.86 -22.03 62.6 -19.25 Q 62.33 -16.47 62.33 -15.26 L 62.33 -15.26 Q 62.33 -12.56 63.69 -11.05 Q 65.04 -9.55 67.41 -9.55 L 67.41 -9.55 Q 69.48 -9.55 70.9 -11.2 Q 72.33 -12.86 73.22 -15.51 Q 74.1 -18.16 74.65 -21.56 Q 75.19 -24.96 75.45 -28.42 Q 75.72 -31.88 75.92 -35.15 Q 76.13 -38.42 76.36 -40.79 L 76.36 -40.79 Q 76.43 -41.4 76.81 -41.86 Q 77.18 -42.33 78.05 -42.33 L 78.05 -42.33 L 80.83 -42.33 Q 83.2 -42.33 84.7 -41.85 Q 86.21 -41.36 87.09 -40.44 Q 87.97 -39.52 88.33 -38.16 Q 88.69 -36.81 88.69 -35.04 L 88.69 -35.04 Q 88.69 -33.88 88.56 -31.75 Q 88.43 -29.63 88.12 -25.9 Q 87.82 -22.18 87.39 -16.45 Q 86.96 -10.72 86.36 -2.22 L 86.36 -2.22 Q 86.21 -0.6 86.02 -0.3 Q 85.83 0 84.74 0 L 84.74 0 L 81.73 0 Q 79.44 0 77.94 -0.55 Q 76.43 -1.09 75.51 -1.94 Q 74.59 -2.78 74.19 -3.93 Q 73.8 -5.08 73.72 -6.32 L 73.72 -6.32 Q 72.56 -4.32 71.15 -2.93 Q 69.74 -1.54 68.2 -0.73 Q 66.66 0.08 65.04 0.41 Q 63.42 0.75 61.88 0.75 L 61.88 0.75 Q 58.95 0.75 56.64 -0.21 Q 54.32 -1.17 52.74 -2.78 Q 51.17 -4.4 50.32 -6.64 Q 49.47 -8.87 49.47 -11.39 Z M 100.34 -16.54 L 100.34 -16.54 Q 100.34 -17.56 100.53 -20.49 Q 100.72 -23.42 101.03 -27.26 Q 101.35 -31.09 101.66 -35.45 Q 101.96 -39.82 102.28 -43.71 Q 102.59 -47.6 102.78 -50.59 Q 102.97 -53.58 102.97 -54.74 L 102.97 -54.74 Q 102.97 -56.43 103.2 -56.72 Q 103.42 -57 104.59 -57 L 104.59 -57 L 107.6 -57 Q 109.89 -57 111.43 -56.45 Q 112.97 -55.91 113.89 -54.99 Q 114.81 -54.07 115.21 -52.86 Q 115.6 -51.66 115.6 -50.27 L 115.6 -50.27 Q 115.6 -48.95 115.32 -45.19 Q 115.04 -41.43 114.66 -36.36 L 114.66 -36.36 Q 116.66 -39.82 119.21 -41.47 Q 121.77 -43.12 125.91 -43.12 L 125.91 -43.12 Q 132.9 -43.12 136.64 -38.5 Q 140.38 -33.88 140.38 -24.7 L 140.38 -24.7 Q 140.38 -22.33 140.04 -19.48 Q 139.7 -16.62 138.82 -13.82 Q 137.94 -11.02 136.36 -8.37 Q 134.78 -5.71 132.22 -3.7 Q 129.67 -1.69 126.09 -0.47 Q 122.52 0.75 117.67 0.75 L 117.67 0.75 Q 111.73 0.75 108.27 -0.98 Q 104.81 -2.71 103.05 -5.32 Q 101.28 -7.93 100.81 -10.98 Q 100.34 -14.02 100.34 -16.54 Z M 113.05 -19.33 L 113.05 -19.33 Q 113.05 -14.02 114.51 -11.75 Q 115.98 -9.47 118.91 -9.47 L 118.91 -9.47 Q 121.69 -9.47 123.25 -11.2 Q 124.82 -12.93 125.62 -15.32 Q 126.43 -17.71 126.68 -20.17 Q 126.92 -22.63 126.92 -24.02 L 126.92 -24.02 Q 126.92 -28.35 125.6 -30.6 Q 124.29 -32.86 121.13 -32.86 L 121.13 -32.86 Q 118.35 -32.86 116.77 -31.41 Q 115.19 -29.97 114.34 -27.88 Q 113.5 -25.79 113.27 -23.44 Q 113.05 -21.09 113.05 -19.33 Z M 149.81 -17.26 L 149.81 -17.26 Q 149.81 -19.17 150.13 -21.86 Q 150.45 -24.55 151.34 -27.41 Q 152.22 -30.27 153.8 -33.07 Q 155.38 -35.87 157.92 -38.11 Q 160.45 -40.34 164.06 -41.73 Q 167.67 -43.12 172.71 -43.12 L 172.71 -43.12 Q 176.7 -43.12 179.48 -42.2 Q 182.26 -41.28 183.95 -39.7 Q 185.64 -38.12 186.41 -36.04 Q 187.19 -33.95 187.19 -31.58 L 187.19 -31.58 Q 187.19 -28.05 185.76 -25.57 Q 184.33 -23.08 182.05 -21.43 Q 179.78 -19.78 177.02 -18.86 Q 174.25 -17.93 171.54 -17.45 Q 168.84 -16.96 166.56 -16.82 Q 164.29 -16.69 163.09 -16.69 L 163.09 -16.69 Q 163.09 -15.23 163.5 -13.82 Q 163.91 -12.41 164.76 -11.32 Q 165.6 -10.23 167 -9.55 Q 168.39 -8.87 170.38 -8.87 L 170.38 -8.87 Q 172.37 -8.87 173.5 -9.51 Q 174.63 -10.15 175.32 -10.96 Q 176.02 -11.77 176.51 -12.43 Q 177 -13.08 177.86 -13.08 L 177.86 -13.08 Q 178.24 -13.08 179.2 -12.9 Q 180.15 -12.71 181.17 -12.09 Q 182.18 -11.47 182.94 -10.4 Q 183.69 -9.32 183.69 -7.63 L 183.69 -7.63 Q 183.69 -5.41 182.32 -3.78 Q 180.94 -2.14 178.74 -1.15 Q 176.55 -0.15 173.86 0.3 Q 171.17 0.75 168.61 0.75 L 168.61 0.75 Q 165.23 0.75 161.88 -0.09 Q 158.54 -0.94 155.87 -3.01 Q 153.2 -5.08 151.51 -8.53 Q 149.81 -11.99 149.81 -17.26 Z M 163.31 -22.86 L 163.31 -22.86 Q 168.09 -22.93 171.04 -24.48 Q 173.99 -26.02 173.99 -28.88 L 173.99 -28.88 Q 173.99 -30.42 173.03 -31.64 Q 172.07 -32.86 170.08 -32.86 L 170.08 -32.86 Q 168.39 -32.86 167.18 -31.9 Q 165.98 -30.94 165.17 -29.48 Q 164.36 -28.01 163.95 -26.24 Q 163.54 -24.48 163.31 -22.86 Z M 196.47 -7.33 L 196.47 -7.33 Q 196.47 -8.5 196.58 -10.6 Q 196.69 -12.71 197.01 -16.45 Q 197.33 -20.19 197.75 -25.92 Q 198.16 -31.66 198.76 -40.12 L 198.76 -40.12 Q 198.91 -42.33 200.38 -42.33 L 200.38 -42.33 L 203.39 -42.33 Q 205.53 -42.33 207.01 -41.88 Q 208.5 -41.43 209.42 -40.62 Q 210.34 -39.82 210.75 -38.73 Q 211.17 -37.64 211.32 -36.51 L 211.32 -36.51 Q 212.26 -38.27 213.52 -39.53 Q 214.78 -40.79 216.17 -41.6 Q 217.56 -42.41 219.03 -42.77 Q 220.49 -43.12 221.73 -43.12 L 221.73 -43.12 Q 223.2 -43.12 224.7 -42.58 Q 226.21 -42.03 227.43 -40.96 Q 228.65 -39.89 229.38 -38.2 Q 230.12 -36.51 230.12 -34.18 L 230.12 -34.18 Q 230.12 -32.11 229.5 -30.27 Q 228.88 -28.42 227.73 -27 Q 226.58 -25.57 224.91 -24.76 Q 223.24 -23.95 221.24 -23.95 L 221.24 -23.95 Q 220.79 -23.95 220.21 -23.99 Q 219.63 -24.02 219.1 -24.14 Q 218.57 -24.25 218.18 -24.44 Q 217.79 -24.63 217.79 -24.96 L 217.79 -24.96 Q 217.79 -25.98 217.86 -26.81 Q 217.94 -27.63 217.94 -28.57 L 217.94 -28.57 Q 217.94 -30.27 217.48 -31.34 Q 217.03 -32.41 215.64 -32.41 L 215.64 -32.41 Q 213.5 -32.41 212.07 -29.61 Q 210.64 -26.81 210.27 -21.17 L 210.27 -21.17 Q 210.12 -18.69 209.83 -15.58 Q 209.55 -12.48 209.33 -9.59 Q 209.1 -6.69 208.95 -4.46 Q 208.8 -2.22 208.8 -1.54 L 208.8 -1.54 Q 208.8 -0.79 208.25 -0.39 Q 207.71 0 207.11 0 L 207.11 0 L 204.33 0 Q 201.96 0 200.45 -0.51 Q 198.95 -1.02 198.05 -1.94 Q 197.14 -2.86 196.81 -4.19 Q 196.47 -5.53 196.47 -7.33 Z M 237.93 -7.33 L 237.93 -7.33 Q 237.93 -8.5 238.05 -10.6 Q 238.16 -12.71 238.48 -16.45 Q 238.8 -20.19 239.21 -25.92 Q 239.62 -31.66 240.23 -40.12 L 240.23 -40.12 Q 240.3 -41.81 240.64 -42.11 L 240.64 -42.11 Q 240.87 -42.33 241.84 -42.33 L 241.84 -42.33 L 244.85 -42.33 Q 247.22 -42.33 248.74 -41.88 Q 250.27 -41.43 251.15 -40.51 Q 252.03 -39.59 252.37 -38.27 Q 252.71 -36.96 252.71 -35.34 L 252.71 -35.34 Q 252.71 -34.18 252.56 -31.86 Q 252.41 -29.55 252.14 -25.59 Q 251.88 -21.62 251.41 -15.73 Q 250.94 -9.85 250.27 -1.54 L 250.27 -1.54 Q 250.19 -0.6 249.87 -0.3 Q 249.55 0 248.57 0 L 248.57 0 L 245.79 0 Q 243.42 0 241.92 -0.51 Q 240.41 -1.02 239.51 -1.94 Q 238.61 -2.86 238.27 -4.19 Q 237.93 -5.53 237.93 -7.33 Z M 240.34 -51.43 L 240.34 -51.43 Q 240.34 -54.52 242.56 -56.28 Q 244.78 -58.05 248.57 -58.05 L 248.57 -58.05 Q 251.88 -58.05 253.39 -56.72 Q 254.89 -55.38 254.89 -53.13 L 254.89 -53.13 Q 254.89 -50.27 252.77 -48.39 Q 250.64 -46.51 246.54 -46.51 L 246.54 -46.51 Q 240.34 -46.51 240.34 -51.43 Z M 261.69 -5.71 L 261.69 -5.71 Q 261.69 -6.39 261.97 -7.39 Q 262.25 -8.38 262.84 -9.31 Q 263.42 -10.23 264.23 -10.88 Q 265.04 -11.54 266.16 -11.54 L 266.16 -11.54 Q 267.1 -11.54 267.88 -11.09 Q 268.65 -10.64 269.68 -10.13 Q 270.71 -9.63 272.26 -9.16 Q 273.8 -8.69 276.35 -8.69 L 276.35 -8.69 Q 278.27 -8.69 279.77 -9.16 Q 281.28 -9.63 281.28 -11.24 L 281.28 -11.24 Q 281.28 -12.71 280.04 -13.59 Q 278.8 -14.48 276.92 -15.25 Q 275.04 -16.02 272.84 -16.9 Q 270.64 -17.78 268.76 -19.25 Q 266.88 -20.72 265.64 -22.99 Q 264.4 -25.27 264.4 -28.88 L 264.4 -28.88 Q 264.4 -32.79 265.98 -35.53 Q 267.56 -38.27 270.06 -39.97 Q 272.56 -41.66 275.71 -42.39 Q 278.87 -43.12 282.03 -43.12 L 282.03 -43.12 Q 288.57 -43.12 291.66 -40.55 Q 294.74 -37.97 294.74 -33.95 L 294.74 -33.95 Q 294.74 -30.57 292.61 -28.8 Q 290.49 -27.03 286.5 -27.03 L 286.5 -27.03 Q 285.41 -27.03 285.04 -27.26 Q 284.66 -27.48 284.66 -28.12 L 284.66 -28.12 Q 284.66 -28.8 284.55 -29.68 Q 284.44 -30.57 284 -31.38 Q 283.57 -32.18 282.69 -32.73 Q 281.8 -33.27 280.19 -33.27 L 280.19 -33.27 Q 278.05 -33.27 276.73 -32.22 Q 275.41 -31.17 275.41 -29.63 L 275.41 -29.63 Q 275.41 -28.01 276.77 -27.05 Q 278.12 -26.09 280.15 -25.25 Q 282.18 -24.4 284.57 -23.52 Q 286.96 -22.63 289 -21.17 Q 291.05 -19.7 292.39 -17.52 Q 293.72 -15.34 293.72 -11.84 L 293.72 -11.84 Q 293.72 -6.32 289.81 -2.78 Q 285.9 0.75 278.05 0.75 L 278.05 0.75 Q 275.9 0.75 273.08 0.41 Q 270.26 0.08 267.72 -0.66 Q 265.19 -1.39 263.44 -2.61 Q 261.69 -3.83 261.69 -5.71 Z M 303.87 -17.26 L 303.87 -17.26 Q 303.87 -19.17 304.19 -21.86 Q 304.51 -24.55 305.39 -27.41 Q 306.28 -30.27 307.86 -33.07 Q 309.43 -35.87 311.97 -38.11 Q 314.51 -40.34 318.12 -41.73 Q 321.73 -43.12 326.77 -43.12 L 326.77 -43.12 Q 330.75 -43.12 333.53 -42.2 Q 336.32 -41.28 338.01 -39.7 Q 339.7 -38.12 340.47 -36.04 Q 341.24 -33.95 341.24 -31.58 L 341.24 -31.58 Q 341.24 -28.05 339.81 -25.57 Q 338.38 -23.08 336.11 -21.43 Q 333.84 -19.78 331.07 -18.86 Q 328.31 -17.93 325.6 -17.45 Q 322.89 -16.96 320.62 -16.82 Q 318.35 -16.69 317.14 -16.69 L 317.14 -16.69 Q 317.14 -15.23 317.56 -13.82 Q 317.97 -12.41 318.82 -11.32 Q 319.66 -10.23 321.05 -9.55 Q 322.44 -8.87 324.44 -8.87 L 324.44 -8.87 Q 326.43 -8.87 327.56 -9.51 Q 328.68 -10.15 329.38 -10.96 Q 330.08 -11.77 330.56 -12.43 Q 331.05 -13.08 331.92 -13.08 L 331.92 -13.08 Q 332.29 -13.08 333.25 -12.9 Q 334.21 -12.71 335.23 -12.09 Q 336.24 -11.47 336.99 -10.4 Q 337.75 -9.32 337.75 -7.63 L 337.75 -7.63 Q 337.75 -5.41 336.37 -3.78 Q 335 -2.14 332.8 -1.15 Q 330.6 -0.15 327.91 0.3 Q 325.23 0.75 322.67 0.75 L 322.67 0.75 Q 319.29 0.75 315.94 -0.09 Q 312.59 -0.94 309.92 -3.01 Q 307.25 -5.08 305.56 -8.53 Q 303.87 -11.99 303.87 -17.26 Z M 317.37 -22.86 L 317.37 -22.86 Q 322.14 -22.93 325.09 -24.48 Q 328.05 -26.02 328.05 -28.88 L 328.05 -28.88 Q 328.05 -30.42 327.09 -31.64 Q 326.13 -32.86 324.14 -32.86 L 324.14 -32.86 Q 322.44 -32.86 321.24 -31.9 Q 320.04 -30.94 319.23 -29.48 Q 318.42 -28.01 318.01 -26.24 Q 317.59 -24.48 317.37 -22.86 Z M 348.98 -5.53 L 348.98 -5.53 Q 348.98 -7.07 349.38 -8.53 Q 349.77 -10 350.62 -11.17 Q 351.46 -12.33 352.93 -13.03 Q 354.4 -13.72 356.54 -13.72 L 356.54 -13.72 Q 359.77 -13.72 361.16 -12.14 Q 362.56 -10.56 362.56 -7.71 L 362.56 -7.71 Q 362.56 -6.54 362.24 -5.04 Q 361.92 -3.53 361.11 -2.27 Q 360.3 -1.02 358.83 -0.13 Q 357.37 0.75 355 0.75 L 355 0.75 Q 351.46 0.75 350.22 -1.05 Q 348.98 -2.86 348.98 -5.53 Z M 374.47 -7.33 L 374.47 -7.33 Q 374.47 -8.5 374.58 -10.6 Q 374.7 -12.71 375.01 -16.45 Q 375.33 -20.19 375.75 -25.92 Q 376.16 -31.66 376.76 -40.12 L 376.76 -40.12 Q 376.84 -41.81 377.18 -42.11 L 377.18 -42.11 Q 377.4 -42.33 378.38 -42.33 L 378.38 -42.33 L 381.39 -42.33 Q 383.76 -42.33 385.28 -41.88 Q 386.8 -41.43 387.69 -40.51 Q 388.57 -39.59 388.91 -38.27 Q 389.25 -36.96 389.25 -35.34 L 389.25 -35.34 Q 389.25 -34.18 389.1 -31.86 Q 388.94 -29.55 388.68 -25.59 Q 388.42 -21.62 387.95 -15.73 Q 387.48 -9.85 386.8 -1.54 L 386.8 -1.54 Q 386.73 -0.6 386.41 -0.3 Q 386.09 0 385.11 0 L 385.11 0 L 382.33 0 Q 379.96 0 378.46 -0.51 Q 376.95 -1.02 376.05 -1.94 Q 375.15 -2.86 374.81 -4.19 Q 374.47 -5.53 374.47 -7.33 Z M 376.88 -51.43 L 376.88 -51.43 Q 376.88 -54.52 379.09 -56.28 Q 381.31 -58.05 385.11 -58.05 L 385.11 -58.05 Q 388.42 -58.05 389.92 -56.72 Q 391.43 -55.38 391.43 -53.13 L 391.43 -53.13 Q 391.43 -50.27 389.3 -48.39 Q 387.18 -46.51 383.08 -46.51 L 383.08 -46.51 Q 376.88 -46.51 376.88 -51.43 Z M 399.69 -18.5 L 399.69 -18.5 Q 399.69 -23.12 400.82 -27.54 Q 401.95 -31.96 404.64 -35.42 Q 407.33 -38.88 411.76 -41 Q 416.2 -43.12 422.82 -43.12 L 422.82 -43.12 Q 432.52 -43.12 436.71 -38.39 Q 440.9 -33.65 440.9 -25.12 L 440.9 -25.12 Q 440.9 -22.75 440.56 -19.85 Q 440.22 -16.96 439.25 -14.1 Q 438.27 -11.24 436.61 -8.55 Q 434.96 -5.87 432.42 -3.78 Q 429.88 -1.69 426.31 -0.47 Q 422.74 0.75 417.89 0.75 L 417.89 0.75 Q 412.59 0.75 409.07 -0.73 Q 405.56 -2.22 403.47 -4.85 Q 401.39 -7.48 400.54 -10.98 Q 399.69 -14.48 399.69 -18.5 Z M 412.81 -19.33 L 412.81 -19.33 Q 412.81 -14.25 414.43 -11.86 Q 416.05 -9.47 419.02 -9.47 L 419.02 -9.47 Q 421.73 -9.47 423.45 -11.17 Q 425.18 -12.86 426.14 -15.25 Q 427.1 -17.63 427.46 -20.25 Q 427.82 -22.86 427.82 -24.63 L 427.82 -24.63 Q 427.82 -28.46 426.39 -30.66 Q 424.96 -32.86 421.5 -32.86 L 421.5 -32.86 Q 418.57 -32.86 416.84 -31.38 Q 415.11 -29.89 414.22 -27.77 Q 413.34 -25.64 413.08 -23.29 Q 412.81 -20.94 412.81 -19.33 Z" stroke-linecap="round" />
</g>
</g>
</g>
<g transform="matrix(0.9779922032514776 0 0 0.9779922032514776 210.78712286519033 453.82516433851623)" id="shape-0e355efa-ee14-4ced-abea-70428c6e2ae9"  >
<g style=""  paint-order="stroke"   >
		<g transform="matrix(1 0 0 1 0 0)" id="path-01_00000121242327244222335860000005628828505613073055_"  >
<path style="stroke: none; stroke-width: 1; stroke-dasharray: none; stroke-linecap: butt; stroke-dashoffset: 0; stroke-linejoin: miter; stroke-miterlimit: 4; fill: rgb(224,115,26); fill-rule: nonzero; opacity: 1;"  paint-order="stroke"  transform=" translate(-1239.5756724564571, -1097.5957114425087)" d="M 1189.48804 1099.21411 C 1188.7385299999999 1064.77856 1227.46399 1041.3449699999999 1258.54505 1053.4136899999999 C 1300.3346 1067.83764 1298.5231999999999 1129.36205 1258.44288 1144.76489 C 1227.01855 1157.9364 1189.08936 1133.68469 1189.48804 1099.21411 z M 1176.11548 1099.21411 C 1176.11548 1064.16601 1204.52759 1035.7539 1239.57569 1035.7539 C 1274.6239099999998 1035.7539 1303.03602 1064.16601 1303.03602 1099.21411 C 1303.03602 1134.2623299999998 1274.62391 1162.6744399999998 1239.5756900000001 1162.6744399999998 C 1204.52759 1162.67444 1176.11548 1134.26233 1176.11548 1099.21411 z M 1260.04761 1148.63818 C 1304.12195 1129.26049 1302.23523 1070.31677 1259.9454400000002 1050.04016 C 1224.8919700000001 1033.56433 1186.5245400000001 1061.62756 1186.8748800000003 1099.2141100000001 C 1186.10461 1136.68628 1225.43994 1164.01611 1260.04761 1148.63818 z M 1236.96765 1028.9729 C 1237.7489 1031.54114 1241.4016100000001 1031.54431 1242.18335 1028.9729 C 1244.35107 1002.73114 1241.69373 976.10254 1241.0398 949.79413 C 1241.0097700000001 947.91059 1238.14185 947.90747 1238.11194 949.79401 C 1237.56482 969.55219 1235.90235 989.30756 1236.33374 1009.1060799999999 C 1236.68982 1015.68347 1235.56201 1022.51569 1236.96765 1028.9729 z M 1220.56592 1025.22083 C 1221.01319 1027.2887 1221.27918 1029.38611 1222.48731 1031.16956 C 1223.66358 1032.90589 1226.9912199999999 1032.99476 1227.42994 1030.52356 C 1228.13746 1026.53845 1226.44666 1021.97369 1225.63184 1018.0667100000001 C 1223.34131 1004.9727800000001 1218.94654 992.3846400000001 1215.6364800000001 979.5610300000001 C 1215.1961700000002 977.7100800000001 1212.47107 978.5086600000001 1212.8138500000002 980.3391700000001 C 1215.1134 995.33661 1216.87109 1010.45685 1220.56592 1025.22083 z M 1204.1366 1027.47974 C 1205.4961 1030.51453 1206.60327 1033.76038 1208.80152 1036.30103 C 1210.24085 1037.9646 1213.71265 1036.7139900000002 1213.41785 1034.38892 C 1204.90003 1009.2766200000001 1191.38123 985.9260900000002 1180.06543 961.9732100000001 C 1179.26331 960.2464000000001 1176.8129900000001 961.7530600000001 1177.5372300000001 963.4509300000001 C 1186.15356 984.88165 1194.23657 1006.56854 1204.1366 1027.47974 z M 1192.09583 1039.30469 C 1193.42713 1041.12342 1194.55457 1042.93201 1196.50159 1044.14124 C 1198.56714 1045.42408 1201.02161 1043.30982 1200.4740000000002 1041.08728 C 1192.276 1025.95129 1179.76636 1013.33673 1169.1721200000002 999.83301 C 1168.0588400000001 998.37641 1165.5528600000002 999.7293099999999 1166.6440400000001 1001.31067 C 1174.87781 1014.12933 1182.66968 1027.27515 1192.09583 1039.30469 z M 1177.62585 1047.75757 C 1180.0693299999998 1049.94739 1182.4769199999998 1052.65857 1185.4772899999998 1054.06763 C 1187.7891799999998 1055.1533200000001 1190.6747999999998 1052.85193 1189.1771199999998 1050.36768 C 1171.1630799999998 1031.14893 1149.5507799999998 1015.3365500000001 1129.57019 998.1973300000001 C 1128.16211 996.96955 1126.1080299999999 998.9739400000001 1127.4998799999998 1000.26764 C 1144.00916 1016.2876 1160.146 1032.74353 1177.62585 1047.75757 z M 1180.03467 1061.8219 C 1166.32813 1051.4735099999998 1149.89319 1044.94544 1134.72144 1036.9858399999998 C 1133.0658 1036.0831299999998 1131.63257 1038.5305199999998 1133.24378 1039.5137899999997 C 1145.89283 1047.8260499999997 1158.27186 1056.6163299999998 1171.68445 1063.7303399999998 C 1173.51209 1064.7768499999997 1175.28235 1066.0425999999998 1177.40357 1066.3416699999998 C 1180.15393 1066.72949 1181.76355 1064.03394 1180.03467 1061.8219 z M 1097.07959 1054.45227 C 1115.7273 1061.0852 1134.02856 1068.77856 1153.01599 1074.49536 C 1159.37671 1076.19519 1165.50928 1079.36072 1172.08862 1079.9909699999998 C 1174.94165 1080.0448 1175.53869 1076.4036899999999 1173.45349 1074.9511799999998 C 1149.15796 1064.8704899999998 1123.0650600000001 1059.1068199999997 1097.85803 1051.6291599999997 C 1096.04382 1051.07141 1095.31116 1053.84656 1097.07959 1054.45227 z M 1157.94495 1087.39709 C 1144.81031 1085.5331999999999 1131.50647 1085.81835 1118.31507 1085.0057299999999 C 1116.4056500000002 1084.85143 1116.49622 1087.69726 1118.31519 1087.93285 C 1133.31495 1090.3752299999999 1148.266 1093.38158 1163.47474 1094.4308999999998 C 1165.6027900000001 1094.6468399999999 1167.6306200000001 1095.0111 1169.72315 1094.4044099999999 C 1171.88209 1093.77856 1172.46863 1090.5850699999999 1170.3692700000001 1089.4617799999999 C 1166.85779 1087.58289 1161.84863 1087.82251 1157.94495 1087.39709 z M 1169.72314 1109.23914 C 1171.88391 1108.33204 1172.6694300000001 1104.58924 1169.72314 1104.0239299999998 C 1143.3544900000002 1104.45105 1117.11132 1110.0191699999998 1090.97424 1113.3686599999999 C 1089.14465 1113.59046 1089.07458 1116.46607 1090.97424 1116.2965199999999 C 1113.89563 1114.7489099999998 1136.89148 1113.76344 1159.71496 1110.8250799999998 C 1162.98596 1110.47375 1166.66211 1110.52429 1169.72314 1109.23914 z M 1172.08875 1118.43787 C 1155.1846999999998 1121.61975 1139.32313 1129.55017 1123.2255899999998 1135.48047 C 1121.4698499999997 1136.09863 1122.1770099999999 1138.8483899999999 1124.0039099999997 1138.30359 C 1136.6208499999998 1134.78284 1149.5822799999996 1132.35034 1161.9328699999996 1127.8446099999999 C 1165.8187299999997 1126.5657999999999 1170.8297199999997 1125.7223 1174.0008599999996 1123.0541999999998 C 1175.94458 1121.4187 1174.2135 1118.59021 1172.08875 1118.43787 z M 1180.03467 1136.60632 C 1181.90174 1134.6110800000001 1180.04798 1131.4713100000001 1177.40357 1132.08654 C 1153.61207 1143.34557 1131.88111 1158.93932 1109.4353099999998 1172.6599 C 1107.8183699999997 1173.6281600000002 1109.2630699999997 1176.1061900000002 1110.9129699999999 1175.1881 C 1131.2791799999998 1164.4197900000001 1151.9479999999999 1154.14464 1171.6572299999998 1142.1423200000002 C 1174.5061 1140.48877 1177.75916 1139.03833 1180.03467 1136.60632 z M 1189.17712 1148.06067 C 1190.11084 1146.13806 1188.5272200000002 1143.21777 1186.12329 1144.08814 C 1182.3446 1145.4561800000001 1179.24243 1149.20875 1176.28894 1151.8476600000001 C 1166.09143 1160.3812300000002 1157.3844 1170.48438 1147.9303 1179.7655100000002 C 1146.54553 1181.07435 1148.58582 1183.0479800000003 1150.00025 1181.8352100000002 C 1161.83582 1172.34839 1174.04835 1163.2686800000001 1184.9836500000001 1152.6898200000003 C 1186.54614 1151.27271 1188.23914 1149.99194 1189.17712 1148.06067 z M 1200.474 1157.34094 C 1201.20105 1155.2436500000001 1198.38599 1152.8562 1196.5015899999999 1154.28711 C 1179.0223399999998 1174.21631 1165.5642099999998 1197.58911 1150.48462 1219.35852 C 1149.38806 1220.91956 1151.9040499999999 1222.31287 1153.01282 1220.8363 C 1167.26404 1202.66674 1181.9968299999998 1184.8254399999998 1195.1543 1165.80249 C 1197.10303 1163.10718 1199.37317 1160.51672 1200.474 1157.34094 z M 1213.41785 1164.03943 C 1213.49549 1161.63501 1210.4393300000002 1160.55444 1208.80152 1162.12732 C 1199.73487 1176.90698 1195.00562 1194.16309 1188.5713 1210.21216 C 1187.938 1211.73279 1190.5374900000002 1212.8346000000001 1191.24684 1211.34021 C 1198.22853 1197.80591 1205.71266 1184.48962 1211.4153000000001 1170.3175 C 1212.33215 1168.2384 1213.34326 1166.34924 1213.41785 1164.03943 z M 1222.4873 1167.25879 C 1214.83032 1192.4688700000002 1211.95678 1219.1024200000002 1207.09777 1244.9798600000001 C 1206.73901 1246.81104 1209.4970600000001 1247.6088900000002 1209.9211300000002 1245.75818 C 1215.53942 1223.45496 1221.7208100000003 1201.2561 1225.9825300000002 1178.61536 C 1226.6599000000003 1175.3927 1227.8077300000002 1171.93824 1227.5264800000002 1168.62366 C 1227.31335 1166.1106 1223.8772 1164.74207 1222.4873 1167.25879 z M 1242.18335 1169.45544 C 1241.15222 1166.90502 1238.0011 1166.90026 1236.96814 1169.45544 C 1234.8500999999999 1186.5074399999999 1237.42004 1204.01489 1238.11169 1221.14257 C 1238.1578299999999 1223.0259899999999 1240.99353 1223.02917 1241.03942 1221.14269 C 1241.91308 1206.0287999999998 1243.3363000000002 1190.91015 1242.7910100000001 1175.7344899999998 C 1242.78345 1173.62036 1242.9895 1171.44934 1242.18335 1169.45544 z M 1259.37354 1176.90466 C 1258.67713 1173.66528 1258.2837 1170.1914 1256.6643100000001 1167.2587899999999 C 1255.27698 1164.7468299999998 1251.8383800000001 1166.10791 1251.625 1168.62366 C 1255.05481 1194.70471 1263.09875 1220.18811 1269.23022 1245.75818 C 1269.6537999999998 1247.60596 1272.4130799999998 1246.81384 1272.05334 1244.9798600000001 C 1268.0957 1222.25256 1264.70337 1199.38904 1259.37354 1176.90466 z M 1273.66565 1167.91846 C 1272.7364499999999 1165.8512 1272.0142799999999 1163.72559 1270.34998 1162.12732 C 1268.71607 1160.55811 1265.65601 1161.63452 1265.73365 1164.03943 C 1265.86207 1168.01563 1268.58387 1172.2428 1270.16566 1175.83228 C 1275.11756 1188.13624 1282.01441 1199.51258 1287.90492 1211.3400900000001 C 1288.60609 1212.8180000000002 1291.22059 1211.7500000000002 1290.57997 1210.2122800000002 C 1285.20154 1196.02356 1280.34839 1181.59412 1273.66565 1167.91846 z M 1289.0022 1161.80042 C 1287.0504199999998 1159.12696 1285.3100599999998 1156.3071300000001 1282.6499099999999 1154.28711 C 1280.7749099999999 1152.86328 1277.94483 1155.22754 1278.6773799999999 1157.34094 C 1292.2489099999998 1179.94153 1310.1684699999998 1199.88745 1326.13844 1220.83655 C 1327.24623 1222.31128 1329.76466 1220.92127 1328.66664 1219.35877 C 1315.69287 1200.01904 1303.15137 1180.34583 1289.0022 1161.80042 z M 1303.20789 1152.15674 C 1300.1640699999998 1149.4366499999999 1296.9171199999998 1145.4960999999998 1293.02832 1144.0881399999998 C 1290.61926 1143.2159499999998 1289.03613 1146.12855 1289.97436 1148.0606699999998 C 1301.1881099999998 1161.0928999999999 1315.9714299999998 1170.8657199999998 1329.15112 1181.8354499999998 C 1330.56506 1183.0474899999997 1332.60669 1181.0749499999997 1331.22131 1179.76526 C 1321.86694 1170.60205 1313.28198 1160.59705 1303.20789 1152.15674 z M 1369.71619 1172.66028 C 1350.21289 1160.4094300000002 1330.9856000000002 1147.65112 1310.74195 1136.58655 C 1307.88453 1134.94556 1304.99244 1132.84155 1301.74793 1132.08655 C 1299.10645 1131.47205 1297.24708 1134.60803 1299.11683 1136.60633 C 1320.75697 1151.59229 1345.13429 1162.60596 1368.23841 1175.18836 C 1369.88684 1176.10522 1371.33496 1173.62939 1369.71619 1172.66028 z M 1305.15076 1123.0542 C 1308.23194 1125.64673 1313.00806 1126.45886 1316.77832 1127.70007 C 1329.27136 1132.26611 1342.37891 1134.75537 1355.1477 1138.30322 C 1356.97143 1138.84741 1357.68444 1136.09973 1355.9259 1135.48071 C 1341.7962599999998 1129.97461 1327.83117 1123.93908 1313.2055599999999 1119.75988 C 1311.1852999999999 1119.1112 1309.2176399999998 1118.2832 1307.0628599999998 1118.43786 C 1304.9491 1118.58948 1303.21143 1121.42261 1305.15076 1123.0542 z M 1388.17737 1113.36902 C 1368.52332 1110.75818 1348.9853500000002 1107.04151 1329.19019 1105.39099 C 1322.62134 1105.04211 1315.98902 1103.24097 1309.42823 1104.0234400000002 C 1306.48768 1104.58814 1307.26685 1108.3317900000002 1309.42823 1109.2391400000001 C 1335.28773 1113.94971 1361.97889 1114.24744 1388.17725 1116.2967600000002 C 1390.07361 1116.4657 1390.00977 1113.5907 1388.17737 1113.36902 z M 1321.66748 1087.34729 C 1317.6427 1087.78552 1312.39612 1087.5282 1308.7823500000002 1089.4617899999998 C 1306.6831100000002 1090.58496 1307.2636700000003 1093.7768499999997 1309.4282200000002 1094.4044199999998 C 1326.6444100000003 1094.8983199999998 1343.8355700000002 1090.35242 1360.8364200000003 1087.9332299999999 C 1362.6523400000003 1087.69751 1362.7492600000003 1084.8511999999998 1360.8364200000003 1085.0053699999999 C 1347.79858 1085.82312 1334.65051 1085.51257 1321.66748 1087.34729 z M 1305.69788 1074.95117 C 1303.6145099999999 1076.4025900000001 1304.2055699999999 1080.04492 1307.06287 1079.99048 C 1332.72535 1074.01245 1357.23084 1063.1870099999999 1382.07178 1054.4525199999998 C 1383.83753 1053.84766 1383.11084 1051.0704399999997 1381.29358 1051.6293999999998 C 1359.16113 1057.91773 1336.83716 1063.6649199999997 1315.0908200000001 1071.2976099999998 C 1311.96753 1072.32043 1308.42261 1073.05334 1305.69788 1074.95117 z M 1344.43018 1036.98596 C 1330.9022300000001 1043.78784 1317.09375 1050.11609 1304.22144 1058.1777299999999 C 1302.40345 1059.23596 1300.4347 1060.1358599999999 1299.11683 1061.8219 C 1297.3919799999999 1064.02893 1298.99256 1066.73023 1301.74793 1066.34168 C 1317.55677 1059.63379 1331.43152 1048.67725 1345.90772 1039.51392 C 1347.51709 1038.53162 1346.0874 1036.08228 1344.43018 1036.98596 z M 1289.97437 1050.36768 C 1288.47901 1052.8479 1291.36072 1055.15406 1293.6743199999999 1054.06763 C 1314.5360099999998 1038.0564 1332.57947 1018.35822 1351.65161 1000.26783 C 1353.04272 998.97462 1350.9899899999998 996.969 1349.58142 998.19758 C 1331.88061 1012.9856 1313.77966 1027.35255 1296.97571 1043.20765 C 1294.52393 1045.42554 1291.70044 1047.505 1289.97437 1050.36768 z M 1278.67737 1041.08728 C 1278.13111 1043.3048099999999 1280.5848400000002 1045.42371 1282.6499000000001 1044.14124 C 1286.0175800000002 1042.04981 1288.30823 1037.59559 1290.6167 1034.44361 C 1298.8002900000001 1023.99824 1305.20606 1012.33088 1312.50708 1001.3104900000001 C 1313.59753 999.73108 1311.0938700000002 998.3748800000001 1309.97974 999.8331300000001 C 1300.3678 1011.6008300000001 1290.2875999999999 1023.0405900000001 1281.77698 1035.6851800000002 C 1280.53296 1037.41016 1279.19568 1038.98413 1278.67737 1041.08728 z M 1270.34998 1036.30103 C 1283.14673 1013.2515900000001 1291.45044 987.7539100000001 1301.61463 963.4510500000001 C 1302.3379 961.7546400000001 1299.88917 960.2444500000001 1299.08643 961.9733300000001 C 1290.51758 979.8853800000002 1280.92127 997.3367300000001 1273.2378 1015.6872600000002 C 1270.8211700000002 1021.9339600000002 1267.0279600000001 1027.78553 1265.73316 1034.3886800000002 C 1265.44043 1036.70166 1268.89929 1037.97766 1270.34998 1036.30103 z M 1256.66431 1031.16956 C 1262.36402 1014.94294 1263.42078 997.24189 1266.3377699999999 980.3393000000001 C 1266.6799299999998 978.5116600000001 1263.9560599999998 977.7071000000001 1263.5147699999998 979.5609200000001 C 1260.2569599999997 992.2394500000001 1255.8862299999998 1004.6726100000001 1253.6144999999997 1017.6131100000001 C 1252.61902 1021.21655 1248.28223 1037.00989 1256.66431 1031.16956 z" stroke-linecap="round" />
</g>
</g>
</g>
</svg>
